# xmcd
#
# Track frame offsets:
#	150
#	13095
#	24960
#	39360
#	53952
#	65087
#	77415
#	91155
#	102437
#	114082
#	126430
#	140700
#
# Disc length: 2059 seconds
#
# Revision: 8
# Processed by: cddbd v1.5.2PL0 Copyright (c) Steve Scherf et al.
# Submitted via: audiograbber 1.83.01
#
DISCID=9808090c
DTITLE=Hildegard Knef - Ihre Grossen Erfolge
DYEAR=1999
DGENRE=Schlager
TTITLE0=Eins Und Eins, Das Macht Zwei (Orchester Gert Wilden)
TTITLE1=Ich Hab' Noch Einen Koffer In Berlin
TTITLE2=Für Mich Soll's Rote Rosen Regnen (Orchester Hans Hammerschmid)
TTITLE3=Nichts Haut Mich Um - Aber Du (I Get A Kick Out Of You)
TTITLE4=(Ich Brauch') Tapetenwechsel (Orchester Hans Hammerschmid Und Die Rosy 
TTITLE4=Singers)
TTITLE5=Das Geht Beim Ersten Mal Vorbei (Orchester Gert Wilden)
TTITLE6=Aber Schön War Es Doch
TTITLE7=Sei Mal Verliebt (Let's Do It) (Orchester Hans Hammerschmid)
TTITLE8=Ich Glaub', 'ne Dame Werd' Ich Nie
TTITLE9=Heimweh Nach Dem Kurfürstendamm
TTITLE10=Macky - Messer (aus der "Dreigroschenoper")
TTITLE11=In Dieser Stadt
EXTD=YEAR: 1999
EXTT0=
EXTT1=
EXTT2=
EXTT3=
EXTT4=
EXTT5=
EXTT6=
EXTT7=
EXTT8=
EXTT9=
EXTT10=
EXTT11=
PLAYORDER=
